<svg width="38" height="32" viewBox="0 0 38 32" fill="none" xmlns="http://www.w3.org/2000/svg">
<path d="M5.31818 32V15.3333L4.94405 15.6199C3.39202 16.8089 1.17211 16.5006 0 14.9333L19.5 0L36.2082 12.7953C37.7518 13.9774 38.0489 16.1852 36.8727 17.7333L33.6818 15.3333V32H5.31818ZM8.86364 28.4444H30.1364V12.6222L19.5 4.48889L8.86364 12.6222V28.4444Z" fill="#20234A"/>
<path d="M22.1035 18.6667C22.1035 20.1394 20.9141 21.3333 19.4469 21.3333C17.9796 21.3333 16.7902 20.1394 16.7902 18.6667C16.7902 17.1939 17.9796 16 19.4469 16C20.9141 16 22.1035 17.1939 22.1035 18.6667Z" fill="#D6404E"/>
</svg>
