<svg width="34" height="32" viewBox="0 0 34 32" fill="none" xmlns="http://www.w3.org/2000/svg">
<path d="M3.4 28.4444H10.2V14.2222C6.44446 14.2222 3.4 17.2667 3.4 21.0222V28.4444ZM13.6 28.4444H20.4V3.55556C16.6445 3.55556 13.6 6.60002 13.6 10.3556V28.4444ZM23.8 28.4444H30.6V24.5778C30.6 20.8222 27.5555 17.7778 23.8 17.7778V28.4444ZM0 32V20.8667C0 15.2334 4.5667 10.6667 10.2 10.6667C10.2 4.77563 14.9756 0 20.8667 0H23.8V14.2222C29.4333 14.2222 34 18.7889 34 24.4222V32H0Z" fill="#20234A"/>
</svg>
