<svg width="82" height="126" viewBox="0 0 82 126" fill="none" xmlns="http://www.w3.org/2000/svg">
<path d="M70.4831 57.6987C70.4831 76.8183 55.0143 92.3178 35.9326 92.3178C16.8508 92.3178 1.38202 76.8183 1.38202 57.6987C1.38202 38.579 16.8508 23.0795 35.9326 23.0795C55.0143 23.0795 70.4831 38.579 70.4831 57.6987ZM18.6573 57.6987C18.6573 67.2585 26.3917 75.0083 35.9326 75.0083C45.4735 75.0083 53.2079 67.2585 53.2079 57.6987C53.2079 48.1388 45.4735 40.3891 35.9326 40.3891C26.3917 40.3891 18.6573 48.1388 18.6573 57.6987Z" fill="#20234A"/>
<path d="M0 110.238L57.847 94.7072C62.7621 93.3876 67.8142 96.3102 69.1312 101.235L71.5158 110.152L13.6688 125.683C8.75371 127.003 3.70162 124.08 2.38462 119.155L0 110.238Z" fill="#20234A"/>
<path d="M82 11.5397C82 17.9129 76.8437 23.0795 70.4831 23.0795C64.1226 23.0795 58.9663 17.9129 58.9663 11.5397C58.9663 5.16651 64.1226 0 70.4831 0C76.8437 0 82 5.16651 82 11.5397Z" fill="#D6404E"/>
</svg>
