<svg width="538" height="300" viewBox="0 0 538 300" fill="none" xmlns="http://www.w3.org/2000/svg">
<path d="M351.347 137.378C351.347 182.901 314.479 219.804 269 219.804C223.521 219.804 186.653 182.901 186.653 137.378C186.653 91.8548 223.521 54.9511 269 54.9511C314.479 54.9511 351.347 91.8548 351.347 137.378ZM227.826 137.378C227.826 160.139 246.26 178.591 269 178.591C291.739 178.591 310.173 160.139 310.173 137.378C310.173 114.616 291.739 96.1644 269 96.1644C246.26 96.1644 227.826 114.616 227.826 137.378Z" fill="#20234A"/>
<path d="M183.359 262.472L321.23 225.493C332.945 222.351 344.986 229.31 348.125 241.036L353.808 262.267L215.937 299.246C204.222 302.388 192.181 295.429 189.043 283.703L183.359 262.472Z" fill="#20234A"/>
<path d="M378.796 27.4756C378.796 42.6499 366.506 54.9511 351.347 54.9511C336.187 54.9511 323.898 42.6499 323.898 27.4756C323.898 12.3012 336.187 0 351.347 0C366.506 0 378.796 12.3012 378.796 27.4756Z" fill="#D6404E"/>
<path d="M451.469 219.698C470.496 220.667 489.27 215.002 504.592 203.669L480.122 170.523C472.461 176.19 463.075 179.022 453.561 178.538C444.048 178.053 434.996 174.282 427.949 167.867C420.903 161.451 416.296 152.788 414.915 143.354C413.533 133.92 415.463 124.298 420.374 116.128C425.285 107.959 432.875 101.746 441.849 98.5495C450.824 95.3529 460.628 95.37 469.591 98.5978C478.555 101.826 486.122 108.064 491.005 116.251C491.901 117.753 492.696 119.304 493.389 120.892H439.184V131.883C439.184 144.022 449.015 153.863 461.143 153.863H538V137.55C538 137.435 538 137.32 538 137.205V131.883C538 130.795 537.842 129.744 537.548 128.751C536.306 116.944 532.522 105.46 526.358 95.125C516.592 78.7512 501.456 66.2735 483.53 59.8178C465.603 53.3622 445.995 53.328 428.046 59.7213C410.097 66.1145 394.918 78.5394 385.095 94.8791C375.273 111.219 371.414 130.462 374.176 149.33C376.939 168.199 386.152 185.524 400.246 198.356C414.34 211.187 432.443 218.729 451.469 219.698Z" fill="#20234A"/>
<path d="M0 76.9315C0 64.7921 9.83146 54.9511 21.9592 54.9511H40.6245V137.378L40.6794 137.378C40.6794 148.439 45.0693 159.048 52.8835 166.87C60.6977 174.691 71.296 179.086 82.3469 179.086C93.3978 179.086 103.996 174.691 111.81 166.87C119.624 159.048 124.014 148.439 124.014 137.378H124.069V76.9315C124.069 64.7921 133.901 54.9511 146.029 54.9511H164.694V137.378C164.694 159.239 156.018 180.204 140.575 195.662C125.132 211.12 104.187 219.804 82.3469 219.804C60.5072 219.804 39.5619 211.12 24.1189 195.662C8.67582 180.204 3.29771e-06 159.239 0 137.378V76.9315Z" fill="#20234A"/>
</svg>
