<svg width="30" height="32" viewBox="0 0 30 32" fill="none" xmlns="http://www.w3.org/2000/svg">
<path d="M5 32C3.61111 32 2.43056 31.5333 1.45833 30.6C0.486111 29.6667 0 28.5333 0 27.2V22.4H5V0L7.5 2.4L10 0L12.5 2.4L15 0L17.5 2.4L20 0L22.5 2.4L25 0L27.5 2.4L30 0V27.2C30 28.5333 29.5139 29.6667 28.5417 30.6C27.5694 31.5333 26.3889 32 25 32H5ZM25 28.8C25.4722 28.8 25.8678 28.6464 26.1867 28.3392C26.5067 28.0331 26.6667 27.6533 26.6667 27.2V4.8H8.33333V22.4H23.3333V27.2C23.3333 27.6533 23.4933 28.0331 23.8133 28.3392C24.1322 28.6464 24.5278 28.8 25 28.8ZM10 11.2V8H20V11.2H10ZM10 16V12.8H20V16H10ZM23.3333 11.2C22.8611 11.2 22.4656 11.0464 22.1467 10.7392C21.8267 10.4331 21.6667 10.0533 21.6667 9.6C21.6667 9.14667 21.8267 8.7664 22.1467 8.4592C22.4656 8.15307 22.8611 8 23.3333 8C23.8056 8 24.2011 8.15307 24.52 8.4592C24.84 8.7664 25 9.14667 25 9.6C25 10.0533 24.84 10.4331 24.52 10.7392C24.2011 11.0464 23.8056 11.2 23.3333 11.2ZM23.3333 16C22.8611 16 22.4656 15.8464 22.1467 15.5392C21.8267 15.2331 21.6667 14.8533 21.6667 14.4C21.6667 13.9467 21.8267 13.5664 22.1467 13.2592C22.4656 12.9531 22.8611 12.8 23.3333 12.8C23.8056 12.8 24.2011 12.9531 24.52 13.2592C24.84 13.5664 25 13.9467 25 14.4C25 14.8533 24.84 15.2331 24.52 15.5392C24.2011 15.8464 23.8056 16 23.3333 16ZM5 28.8H20V25.6H3.33333V27.2C3.33333 27.6533 3.49278 28.0331 3.81167 28.3392C4.13167 28.6464 4.52778 28.8 5 28.8Z" fill="#20234A"/>
<path d="M24.768 15.2579C24.2916 16.0386 23.2631 16.2916 22.471 15.823C21.6788 15.3543 21.4229 14.3415 21.8993 13.5607C22.3758 12.78 23.4042 12.527 24.1963 12.9957C24.9885 13.4643 25.2444 14.4772 24.768 15.2579Z" fill="#D6404E"/>
<path d="M24.768 10.4954C24.2916 11.2762 23.2603 11.5275 22.4647 11.0567C21.669 10.586 21.4102 9.5715 21.8867 8.79076C22.3631 8.01002 23.3944 7.75871 24.19 8.22944C24.9857 8.70018 25.2445 9.71469 24.768 10.4954Z" fill="#D6404E"/>
</svg>
