<svg width="34" height="32" viewBox="0 0 34 32" fill="none" xmlns="http://www.w3.org/2000/svg">
<path d="M10.2 11.7895H18.7V8.42105H10.2V11.7895ZM4.25 32C3.28667 28.8 2.3375 25.6067 1.4025 22.4202C0.4675 19.2348 0 15.9719 0 12.6316C0 10.0491 0.906666 7.85965 2.72 6.06316C4.53333 4.26667 6.74333 3.36842 9.35 3.36842H17.85C18.6717 2.30175 19.6707 1.47368 20.8471 0.884211C22.0224 0.294737 23.29 0 24.65 0C25.3583 0 25.9601 0.245895 26.4554 0.737684C26.9518 1.22835 27.2 1.82456 27.2 2.52632C27.2 2.69474 27.1785 2.86316 27.1354 3.03158C27.0935 3.2 27.0442 3.35439 26.9875 3.49474C26.8742 3.80351 26.7682 4.11902 26.6696 4.44126C26.5699 4.76463 26.4917 5.09474 26.435 5.43158L30.3025 9.26316H34V21.0105L29.1975 22.5684L26.35 32H17V28.6316H13.6V32H4.25ZM6.8 28.6316H10.2V25.2632H20.4V28.6316H23.8L26.435 19.9579L30.6 18.5684V12.6316H28.9L22.95 6.73684C22.95 6.17544 22.9851 5.63481 23.0554 5.11495C23.1268 4.59621 23.2333 4.07018 23.375 3.53684C22.5533 3.7614 21.8308 4.14709 21.2075 4.6939C20.5842 5.24183 20.1308 5.92281 19.8475 6.73684H9.35C7.70667 6.73684 6.30417 7.31228 5.1425 8.46316C3.98083 9.61404 3.4 11.0035 3.4 12.6316C3.4 15.3825 3.7825 18.0699 4.5475 20.6939C5.3125 23.319 6.06333 25.9649 6.8 28.6316Z" fill="#20234A"/>
<path d="M25.6 13.4C25.6 14.3941 24.7941 15.2 23.8 15.2C22.8059 15.2 22 14.3941 22 13.4C22 12.4059 22.8059 11.6 23.8 11.6C24.7941 11.6 25.6 12.4059 25.6 13.4Z" fill="#D6404E"/>
</svg>
