<svg width="35" height="32" viewBox="0 0 35 32" fill="none" xmlns="http://www.w3.org/2000/svg">
<path d="M34.6312 26.2214L31.722 23.3182V14.8948H23.281L16.7249 8.35241H31.722V5.0812H13.4468L10.1688 1.80998H31.722C32.6234 1.80998 33.3954 2.13056 34.0379 2.77172C34.6793 3.41179 35 4.18161 35 5.0812V24.7085C35 24.9811 34.9727 25.2472 34.9181 25.5067C34.8634 25.7651 34.7678 26.0033 34.6312 26.2214ZM13.9386 14.8948H5.49758V24.7085H23.7727L13.9386 14.8948ZM30.3855 31.279L27.0507 27.9797H5.49758C4.59612 27.9797 3.82469 27.6597 3.18328 27.0196C2.54078 26.3784 2.21953 25.6081 2.21953 24.7085V5.0812C2.21953 4.18161 2.54078 3.41179 3.18328 2.77172C3.82469 2.13056 4.59612 1.80998 5.49758 1.80998L8.77563 5.0812H5.49758V8.35241H7.38246L0.00685338 0.992176L1.35274 0.378148L4.62133 0.950386L34.7951 31.0465L33.4618 31.6605L30.3855 31.279Z" fill="#20234A"/>
<path d="M0 0.975697C1.32706 -0.331682 3.47116 -0.324256 4.78898 0.992282L34.8503 31.0243C33.5233 32.3317 31.3792 32.3243 30.0614 31.0077L0 0.975697Z" fill="#D6404E"/>
</svg>
